<svg width="16" height="19" viewBox="0 0 16 19" fill="none" xmlns="http://www.w3.org/2000/svg">
<path d="M15.2166 3.13333H12.7883C12.6065 2.24927 12.1255 1.45492 11.4263 0.884162C10.7271 0.313404 9.85254 0.00113938 8.94998 0L7.38331 0C6.48075 0.00113938 5.60618 0.313404 4.907 0.884162C4.20782 1.45492 3.72679 2.24927 3.54498 3.13333H1.11665C0.908893 3.13333 0.709649 3.21586 0.562746 3.36277C0.415842 3.50967 0.333313 3.70891 0.333313 3.91667C0.333313 4.12442 0.415842 4.32366 0.562746 4.47057C0.709649 4.61747 0.908893 4.7 1.11665 4.7H1.89998V14.8833C1.90122 15.9217 2.31427 16.9172 3.04852 17.6515C3.78277 18.3857 4.77826 18.7988 5.81665 18.8H10.5166C11.555 18.7988 12.5505 18.3857 13.2848 17.6515C14.019 16.9172 14.4321 15.9217 14.4333 14.8833V4.7H15.2166C15.4244 4.7 15.6236 4.61747 15.7705 4.47057C15.9174 4.32366 16 4.12442 16 3.91667C16 3.70891 15.9174 3.50967 15.7705 3.36277C15.6236 3.21586 15.4244 3.13333 15.2166 3.13333ZM7.38331 1.56667H8.94998C9.43586 1.56726 9.90966 1.71814 10.3064 1.99863C10.7032 2.27912 11.0034 2.67547 11.166 3.13333H5.16726C5.32987 2.67547 5.63014 2.27912 6.02688 1.99863C6.42363 1.71814 6.89743 1.56726 7.38331 1.56667ZM12.8666 14.8833C12.8666 15.5066 12.6191 16.1043 12.1783 16.545C11.7376 16.9857 11.1399 17.2333 10.5166 17.2333H5.81665C5.19339 17.2333 4.59566 16.9857 4.15495 16.545C3.71423 16.1043 3.46665 15.5066 3.46665 14.8833V4.7H12.8666V14.8833Z" fill="#FF3900"/>
<path d="M6.59998 14.0999C6.80774 14.0999 7.00698 14.0174 7.15388 13.8705C7.30079 13.7236 7.38332 13.5243 7.38332 13.3166V8.61659C7.38332 8.40883 7.30079 8.20959 7.15388 8.06269C7.00698 7.91578 6.80774 7.83325 6.59998 7.83325C6.39223 7.83325 6.19299 7.91578 6.04608 8.06269C5.89918 8.20959 5.81665 8.40883 5.81665 8.61659V13.3166C5.81665 13.5243 5.89918 13.7236 6.04608 13.8705C6.19299 14.0174 6.39223 14.0999 6.59998 14.0999Z" fill="#FF3900"/>
<path d="M9.73335 14.0999C9.9411 14.0999 10.1403 14.0174 10.2872 13.8705C10.4341 13.7236 10.5167 13.5243 10.5167 13.3166V8.61659C10.5167 8.40883 10.4341 8.20959 10.2872 8.06269C10.1403 7.91578 9.9411 7.83325 9.73335 7.83325C9.52559 7.83325 9.32635 7.91578 9.17945 8.06269C9.03254 8.20959 8.95001 8.40883 8.95001 8.61659V13.3166C8.95001 13.5243 9.03254 13.7236 9.17945 13.8705C9.32635 14.0174 9.52559 14.0999 9.73335 14.0999Z" fill="#FF3900"/>
</svg>
